# xmcd
#
# Track frame offsets: 
#        150
#        14679
#        27988
#        35436
#        53576
#        72483
#        87494
#        101402
#        115475
#        128188
#        139953
#        155023
#        173239
#        194152
#        205312
#        224733
#        237855
#
# Disc length: 3324 seconds
#
# Revision: 0
# Processed by: cddbd v1.5.2PL0 Copyright (c) Steve Scherf et al.
# Submitted via: ExactAudioCopy v1.2
#
DISCID=0a0cfa11
DTITLE=Dave Peabody and Regina Mudrich - Some of These Days
DYEAR=2019
DGENRE=Blues
TTITLE0=She Caught the Train
TTITLE1=Nobody Knows You When You're Down and Out
TTITLE2=Everybody Loves My Baby
TTITLE3=Picture the Blues
TTITLE4=Delta Bound
TTITLE5=Little Wheel
TTITLE6=Please Don't Tell Me You Love Me
TTITLE7=Standing on the Highway
TTITLE8=The Jazz Fiddler
TTITLE9=Don't Blame Shorty for That
TTITLE10=Fan It
TTITLE11=Careless Love
TTITLE12=After You've Gone
TTITLE13=That's It!
TTITLE14=Cold Iron Bed
TTITLE15=Going to Germany
TTITLE16=Some of These Days
EXTD=
EXTT0=
EXTT1=
EXTT2=
EXTT3=
EXTT4=
EXTT5=
EXTT6=
EXTT7=
EXTT8=
EXTT9=
EXTT10=
EXTT11=
EXTT12=
EXTT13=
EXTT14=
EXTT15=
EXTT16=
PLAYORDER=
